<svg xmlns="http://www.w3.org/2000/svg" width="38.181" height="60.002" viewBox="0 0 38.181 60.002">
  <path id="Path_37331" data-name="Path 37331" d="M73.744,31.168a18.184,18.184,0,0,0-4.522-2.847Q66.7,27.194,64.045,26.3t-5.179-1.742a24.537,24.537,0,0,1-4.52-1.985A10.454,10.454,0,0,1,51.139,19.8a6.617,6.617,0,0,1-1.211-4.075,9.137,9.137,0,0,1,.7-3.584A8.022,8.022,0,0,1,52.7,9.256a10.087,10.087,0,0,1,3.433-1.945A14.319,14.319,0,0,1,60.861,6.6a14.683,14.683,0,0,1,4.828.7A19.109,19.109,0,0,1,69.1,8.827a26.136,26.136,0,0,1,2.341,1.537,2.854,2.854,0,0,0,1.625.7,1.737,1.737,0,0,0,1.068-.309,3.2,3.2,0,0,0,.782-.921l1.931-3.766a20.691,20.691,0,0,0-7.112-4.506,25,25,0,0,0-9-1.558,20.957,20.957,0,0,0-7.789,1.353,17.076,17.076,0,0,0-5.691,3.6,15.625,15.625,0,0,0-4.726,11.18,15.612,15.612,0,0,0,1.213,6.532,13.147,13.147,0,0,0,3.184,4.4,16.811,16.811,0,0,0,4.5,2.866,51.478,51.478,0,0,0,5.179,1.945q2.651.841,5.177,1.638a22.291,22.291,0,0,1,4.5,1.945,10.067,10.067,0,0,1,3.186,2.849,7.329,7.329,0,0,1,1.211,4.36,11.251,11.251,0,0,1-.82,4.382,9.5,9.5,0,0,1-2.364,3.38,10.722,10.722,0,0,1-3.762,2.189,15.166,15.166,0,0,1-5.053.779,15.942,15.942,0,0,1-5.773-.921,21.388,21.388,0,0,1-4.029-2.028A32.883,32.883,0,0,1,46.1,48.43a3.276,3.276,0,0,0-1.973-.921,1.877,1.877,0,0,0-1.047.307,3,3,0,0,0-.8.758l-2.3,3.768a24.442,24.442,0,0,0,8.036,5.59A25.587,25.587,0,0,0,58.433,60,22.873,22.873,0,0,0,66.8,58.567,17.95,17.95,0,0,0,73,54.636a16.684,16.684,0,0,0,3.843-5.878,19.78,19.78,0,0,0,1.315-7.229,14.052,14.052,0,0,0-1.211-6.145,13.012,13.012,0,0,0-3.207-4.216" transform="translate(-39.981)"/>
</svg>
