<svg xmlns="http://www.w3.org/2000/svg" width="84.118" height="60" viewBox="0 0 84.118 60">
  <path id="Path_37328" data-name="Path 37328" d="M76.015.586a2.613,2.613,0,0,0-.942,1.34l-12.436,41.7a17.973,17.973,0,0,0-.544,2.343q-.21,1.257-.461,2.637a40.466,40.466,0,0,0-1.34-4.981L46.267,1.926A3,3,0,0,0,45.283.544,2.794,2.794,0,0,0,43.5,0H41.159a2.683,2.683,0,0,0-1.78.607,3.057,3.057,0,0,0-.984,1.319l-14.112,41.7a22.148,22.148,0,0,0-.669,2.407c-.195.881-.392,1.793-.586,2.743-.167-.95-.343-1.854-.523-2.722s-.383-1.674-.607-2.428L9.5,1.926A2.673,2.673,0,0,0,8.541.544,2.89,2.89,0,0,0,6.74,0H0L18.714,60H26L41.284,14.235q.206-.625.4-1.4c.125-.516.258-1.054.4-1.613a25.329,25.329,0,0,0,.838,3.014L58.116,60H65.4L84.118,0H77.8a2.768,2.768,0,0,0-1.78.586"/>
</svg>
