<?xml version="1.0" encoding="UTF-8"?>
<svg id="Layer_1" data-name="Layer 1" xmlns="http://www.w3.org/2000/svg" viewBox="0 0 300 300">
  <defs>
    <style>
      .cls-1 {
        fill: none;
      }
    </style>
  </defs>
  <rect class="cls-1" width="300" height="300"/>
  <g>
    <rect x="179.15" y="132.99" width="34.02" height="34.02"/>
    <polygon points="95.24 167.01 114.88 132.99 75.6 132.99 95.24 167.01"/>
    <rect x="155.74" y="132.99" width="17.01" height="34.02"/>
    <polygon points="219.58 132.99 239.21 167.01 258.85 132.99 219.58 132.99"/>
    <path d="M58.15,132.99c-9.39,0-17.01,7.61-17.01,17.01h0c0,9.39,7.61,17.01,17.01,17.01s17.01-7.61,17.01-17.01h0c0-9.39-7.61-17.01-17.01-17.01Z"/>
    <polygon points="125.28 132.99 115.32 142.96 115.32 157.04 125.28 167.01 139.37 167.01 149.33 157.04 149.33 142.96 139.37 132.99 125.28 132.99"/>
  </g>
</svg>