<?xml version="1.0" encoding="UTF-8"?>
<svg id="Layer_1" data-name="Layer 1" xmlns="http://www.w3.org/2000/svg" viewBox="0 0 213.97 30">
  <path d="M10.76,5.21h-1.94L0,17.74v2.18h8.39v4.63h2.37v-4.63h2.61v-2.18h-2.61V5.21ZM8.39,17.74H2.33l6.05-8.71v8.71Z"/>
  <path d="M32.16,7.56c-.51-.79-1.16-1.39-1.94-1.81-.78-.42-1.69-.63-2.73-.63-1.41,0-2.57.38-3.5,1.13-.93.76-1.63,1.83-2.1,3.22-.47,1.39-.71,3.23-.71,5.52,0,3.63.64,6.25,1.91,7.86,1.06,1.34,2.53,2,4.39,2,1.42,0,2.59-.38,3.51-1.14.93-.76,1.62-1.84,2.09-3.23.47-1.39.7-3.22.7-5.49,0-1.92-.15-3.44-.44-4.57-.29-1.13-.69-2.09-1.2-2.87ZM30.25,21.33c-.74,1.05-1.66,1.58-2.75,1.58s-2.01-.53-2.75-1.58-1.11-3.16-1.11-6.34.41-5.35,1.23-6.53c.65-.92,1.52-1.38,2.61-1.38s2.03.52,2.78,1.57c.74,1.05,1.11,3.16,1.11,6.34s-.37,5.27-1.11,6.33Z"/>
  <path d="M51.59,5.21h-1.94l-8.82,12.53v2.18h8.38v4.63h2.37v-4.63h2.61v-2.18h-2.61V5.21ZM49.22,17.74h-6.05l6.05-8.71v8.71Z"/>
  <polygon points="99.89 15.81 110.59 15.81 110.59 13.54 99.89 13.54 99.89 7.62 111.31 7.62 111.31 5.34 97.34 5.34 97.34 24.67 111.76 24.67 111.76 22.39 99.89 22.39 99.89 15.81"/>
  <path d="M132.28,16.84c-.35-.32-.87-.64-1.54-.96,1.85-.25,3.23-.85,4.11-1.79.89-.94,1.33-2.1,1.33-3.47,0-1.06-.27-2.03-.8-2.91-.54-.88-1.25-1.49-2.15-1.84-.9-.35-2.21-.52-3.93-.52h-8.57v19.33h2.56v-8.58h2.97c.66,0,1.13.03,1.42.09.4.1.78.27,1.17.51.38.25.81.68,1.3,1.29.48.62,1.1,1.5,1.85,2.66l2.56,4.02h3.22l-3.36-5.26c-.67-1.03-1.38-1.89-2.12-2.57ZM128.79,13.87h-5.5v-6.39h6.12c1.43,0,2.48.29,3.14.88.66.59.99,1.34.99,2.25,0,.62-.17,1.2-.51,1.73-.34.53-.84.92-1.5,1.16-.66.24-1.57.36-2.74.36Z"/>
  <path d="M157.18,16.84c-.35-.32-.86-.64-1.54-.96,1.85-.25,3.23-.85,4.11-1.79.89-.94,1.33-2.1,1.33-3.47,0-1.06-.27-2.03-.8-2.91-.54-.88-1.25-1.49-2.15-1.84-.9-.35-2.21-.52-3.93-.52h-8.57v19.33h2.56v-8.58h2.97c.66,0,1.13.03,1.42.09.4.1.78.27,1.17.51.38.25.81.68,1.3,1.29.48.62,1.1,1.5,1.85,2.66l2.56,4.02h3.22l-3.36-5.26c-.67-1.03-1.38-1.89-2.12-2.57ZM153.69,13.87h-5.5v-6.39h6.12c1.43,0,2.48.29,3.14.88.66.59.99,1.34.99,2.25,0,.62-.17,1.2-.51,1.73-.34.53-.84.92-1.5,1.16-.66.24-1.57.36-2.74.36Z"/>
  <path d="M183.8,6.28c-1.43-.85-3.04-1.28-4.83-1.28-2.72,0-4.95.91-6.67,2.72-1.72,1.82-2.58,4.33-2.58,7.53,0,1.7.37,3.3,1.11,4.83.74,1.52,1.82,2.72,3.26,3.6s3.06,1.32,4.88,1.32c1.68,0,3.24-.4,4.69-1.19,1.45-.8,2.57-1.97,3.36-3.51.79-1.55,1.19-3.3,1.19-5.26s-.38-3.66-1.13-5.19c-.75-1.53-1.84-2.71-3.28-3.57ZM183.7,20.78c-1.24,1.35-2.83,2.03-4.75,2.03s-3.46-.67-4.71-2.01c-1.25-1.34-1.88-3.18-1.88-5.5,0-2.91.65-4.99,1.96-6.23,1.31-1.24,2.86-1.87,4.67-1.87,1.27,0,2.42.32,3.45.97,1.02.65,1.8,1.56,2.33,2.73.53,1.17.8,2.55.8,4.12,0,2.49-.62,4.41-1.87,5.76Z"/>
  <path d="M210.61,19.41c-.67-1.03-1.38-1.89-2.12-2.57-.35-.32-.87-.64-1.54-.96,1.85-.25,3.23-.85,4.11-1.79.89-.94,1.33-2.1,1.33-3.47,0-1.06-.27-2.03-.8-2.91-.54-.88-1.25-1.49-2.15-1.84-.9-.35-2.21-.52-3.93-.52h-8.57v19.33h2.56v-8.58h2.97c.66,0,1.13.03,1.42.09.4.1.78.27,1.17.51.38.25.81.68,1.3,1.29.48.62,1.1,1.5,1.85,2.66l2.56,4.02h3.22l-3.36-5.26ZM204.99,13.87h-5.5v-6.39h6.12c1.43,0,2.48.29,3.14.88.66.59,1,1.34,1,2.25,0,.62-.17,1.2-.51,1.73-.34.53-.84.92-1.5,1.16-.66.24-1.57.36-2.74.36Z"/>
  <rect x="74.77" width="2" height="30"/>
</svg>