<?xml version="1.0" encoding="UTF-8"?>
<svg id="Layer_1" data-name="Layer 1" xmlns="http://www.w3.org/2000/svg" viewBox="0 0 56.69 13.31">
  <defs>
    <style>
      .cls-1 {
        fill: #fff;
      }
    </style>
  </defs>
  <path class="cls-1" d="M8.96,6.03c0,.77-.12,1.48-.37,2.11-.25.64-.59,1.18-1.04,1.63s-.98.8-1.61,1.05-1.32.37-2.08.37H0V.85h3.87c.76,0,1.45.12,2.08.37s1.16.6,1.61,1.05.79,1,1.04,1.63c.25.64.37,1.34.37,2.11ZM7.53,6.03c0-.64-.09-1.2-.26-1.7s-.42-.92-.74-1.27c-.32-.35-.7-.61-1.15-.79-.45-.18-.96-.27-1.51-.27H1.41v8.07h2.46c.55,0,1.06-.09,1.51-.27s.84-.45,1.15-.79c.32-.34.56-.77.74-1.27s.26-1.07.26-1.7Z"/>
  <path class="cls-1" d="M21.96,11.19h-1.08c-.13,0-.23-.03-.3-.09-.08-.06-.13-.14-.17-.24l-.97-2.5h-4.64l-.97,2.5c-.03.09-.09.16-.17.23s-.18.1-.3.1h-1.08L16.4.85h1.42l4.13,10.34ZM15.18,7.35h3.86l-1.62-4.21c-.11-.26-.21-.58-.31-.97-.05.2-.1.38-.16.54-.05.17-.1.31-.15.44l-1.62,4.2Z"/>
  <path class="cls-1" d="M28.95,7.08v4.11h-1.39v-4.11l-3.79-6.23h1.23c.13,0,.22.03.3.09.07.06.13.14.19.23l2.37,4.02c.1.17.18.33.24.48.06.15.12.3.18.44.05-.15.11-.3.17-.45.06-.15.14-.31.24-.47l2.36-4.02c.04-.08.1-.15.18-.22.07-.07.17-.1.29-.1h1.24l-3.8,6.23Z"/>
  <path class="cls-1" d="M37.76,6.65c0,1.03.13,2.03.4,3,.26.97.65,1.89,1.15,2.77.03.05.05.1.06.14,0,.04.01.08.01.12,0,.07-.02.12-.05.17-.03.04-.08.08-.13.12l-.57.35c-.36-.55-.67-1.1-.92-1.64-.25-.54-.46-1.09-.61-1.64-.16-.55-.27-1.1-.34-1.66s-.11-1.13-.11-1.71.04-1.15.11-1.71c.07-.56.19-1.11.34-1.66.16-.55.36-1.09.61-1.63.25-.54.56-1.09.92-1.65l.57.35c.05.03.1.07.13.12.03.04.05.1.05.17,0,.07-.02.15-.07.24-.51.88-.89,1.8-1.15,2.77-.26.97-.39,1.97-.39,3Z"/>
  <path class="cls-1" d="M49.44,2.47c-.04.07-.09.13-.14.16-.05.04-.11.05-.19.05-.08,0-.18-.04-.29-.12-.11-.08-.25-.17-.41-.27-.17-.1-.37-.19-.6-.27-.23-.08-.52-.12-.85-.12-.31,0-.59.04-.83.13-.24.08-.44.2-.6.34-.16.14-.28.31-.36.51s-.12.41-.12.63c0,.29.07.53.21.72.14.19.33.35.56.49.23.14.5.25.79.35.3.1.6.2.91.31.31.11.61.22.91.36s.56.3.79.5.42.45.56.74c.14.29.21.65.21,1.08,0,.45-.08.88-.23,1.27-.15.4-.38.74-.68,1.04s-.66.52-1.09.69c-.43.17-.92.25-1.47.25-.67,0-1.28-.12-1.83-.36s-1.02-.57-1.41-.98l.4-.66c.04-.05.09-.1.14-.13.06-.04.12-.05.18-.05.1,0,.22.05.35.16.13.11.29.23.49.36.19.13.43.25.71.36.28.11.61.16,1.01.16.33,0,.63-.05.89-.14.26-.09.48-.22.66-.39.18-.17.32-.36.41-.59.1-.23.14-.49.14-.77,0-.31-.07-.57-.21-.77s-.33-.37-.56-.5c-.23-.13-.49-.25-.79-.34-.3-.09-.6-.19-.91-.29-.31-.1-.61-.21-.91-.34s-.56-.3-.79-.51c-.23-.21-.42-.47-.56-.78s-.21-.69-.21-1.15c0-.37.07-.72.21-1.06s.35-.64.62-.91c.27-.26.6-.48,1-.64.4-.16.85-.24,1.37-.24.58,0,1.1.09,1.58.27.48.18.89.45,1.25.79l-.34.66Z"/>
  <path class="cls-1" d="M55.57,6.65c0-1.03-.13-2.03-.39-3-.26-.97-.65-1.89-1.15-2.77-.05-.09-.07-.17-.07-.24,0-.07.02-.12.05-.17s.08-.08.13-.12l.57-.35c.36.56.67,1.11.92,1.65.25.54.46,1.09.61,1.63.16.55.27,1.1.34,1.66.07.56.11,1.13.11,1.71s-.04,1.16-.11,1.71c-.07.56-.19,1.11-.34,1.66-.16.55-.36,1.09-.61,1.64-.25.54-.56,1.09-.92,1.64l-.57-.35c-.05-.03-.1-.07-.13-.12s-.05-.1-.05-.17c0-.04,0-.08.01-.12,0-.04.03-.08.06-.14.5-.88.88-1.81,1.15-2.77.26-.97.4-1.97.4-3Z"/>
</svg>