<?xml version="1.0" encoding="UTF-8"?>
<svg id="Layer_1" data-name="Layer 1" xmlns="http://www.w3.org/2000/svg" viewBox="0 0 56.69 10.25">
  <path d="M6.46,8.63h-1.08v-3.63H1.08v3.63H0V.66h1.08v3.55h4.29V.66h1.08v7.97Z"/>
  <path d="M18.03,4.64c0,.6-.1,1.14-.28,1.64s-.46.93-.8,1.29c-.34.36-.76.64-1.24.84-.48.2-1.02.3-1.6.3s-1.12-.1-1.6-.3c-.48-.2-.9-.48-1.24-.84-.34-.36-.61-.79-.8-1.29-.19-.5-.28-1.05-.28-1.64s.1-1.14.28-1.64c.19-.5.46-.93.8-1.29s.76-.64,1.24-.84c.48-.2,1.02-.3,1.6-.3s1.12.1,1.6.3c.48.2.9.48,1.24.84s.61.79.8,1.29.28,1.05.28,1.64ZM16.93,4.64c0-.49-.07-.93-.2-1.32-.13-.39-.32-.72-.57-.99-.24-.27-.54-.48-.89-.62-.35-.14-.74-.22-1.17-.22s-.81.07-1.16.22c-.35.14-.65.35-.89.62-.25.27-.44.6-.57.99-.13.39-.2.83-.2,1.32s.07.93.2,1.32c.13.39.32.72.57.98.25.27.54.47.89.62s.74.21,1.16.21.82-.07,1.17-.21.65-.35.89-.62c.25-.27.43-.6.57-.98.13-.39.2-.83.2-1.32Z"/>
  <path d="M24.83,7.77c.33,0,.62-.06.88-.17s.48-.27.66-.47c.18-.2.32-.44.41-.72.09-.28.14-.58.14-.92V.66h1.07v4.84c0,.46-.07.89-.22,1.28-.15.39-.36.73-.63,1.02s-.6.51-1,.68c-.39.16-.83.24-1.32.24s-.93-.08-1.32-.24c-.39-.16-.73-.39-1-.68s-.49-.63-.63-1.02c-.15-.39-.22-.82-.22-1.28V.66h1.07v4.84c0,.33.05.64.14.92.09.28.23.52.41.72.18.2.4.36.66.47.26.11.56.17.89.17Z"/>
  <path d="M33.26,5.3v3.33h-1.07V.66h2.25c.5,0,.94.05,1.31.15.37.1.67.25.91.44.24.19.42.43.53.7s.17.58.17.92c0,.28-.04.54-.13.79-.09.24-.22.46-.39.66-.17.19-.37.36-.62.5-.24.14-.52.24-.83.31.13.08.25.19.36.34l2.32,3.16h-.96c-.2,0-.34-.08-.43-.23l-2.07-2.85c-.06-.09-.13-.15-.21-.19-.07-.04-.19-.06-.33-.06h-.82ZM33.26,4.52h1.13c.31,0,.59-.04.83-.11.24-.08.44-.18.6-.32.16-.14.28-.31.36-.5.08-.19.12-.41.12-.64,0-.47-.16-.83-.47-1.07-.31-.24-.78-.36-1.4-.36h-1.18v3.01Z"/>
  <path d="M42.1,5.13c0,.79.1,1.56.31,2.31.2.75.5,1.46.88,2.14.02.04.04.08.05.11,0,.03.01.06.01.09,0,.05-.01.09-.04.13-.03.03-.06.06-.1.09l-.44.27c-.28-.43-.51-.85-.71-1.27-.2-.42-.35-.84-.47-1.26s-.21-.85-.26-1.28c-.06-.43-.08-.87-.08-1.32s.03-.89.08-1.32c.06-.43.14-.86.26-1.28.12-.42.28-.84.47-1.26.19-.42.43-.84.71-1.27l.44.27s.07.06.1.09c.03.03.04.08.04.13,0,.06-.02.12-.06.19-.39.68-.68,1.39-.89,2.14-.2.75-.3,1.52-.3,2.31Z"/>
  <path d="M51.1,1.9c-.03.06-.07.1-.11.12-.04.03-.09.04-.14.04s-.14-.03-.22-.09c-.08-.06-.19-.13-.32-.21-.13-.08-.28-.15-.46-.21-.18-.06-.4-.09-.65-.09-.24,0-.45.03-.64.1-.19.07-.34.15-.46.26s-.22.24-.28.39c-.06.15-.1.31-.1.49,0,.22.06.41.16.55.11.15.25.27.43.38.18.1.38.19.61.27.23.08.46.15.7.24.24.08.47.17.7.28s.43.23.61.39c.18.16.32.35.43.57.11.23.16.5.16.83,0,.35-.06.68-.18.98-.12.31-.29.57-.52.8s-.51.4-.84.53c-.33.13-.71.19-1.13.19-.52,0-.99-.09-1.41-.28-.43-.19-.79-.44-1.09-.76l.31-.51s.07-.08.11-.1c.04-.03.09-.04.14-.04.08,0,.17.04.27.12.1.08.23.18.38.28.15.1.33.19.54.28.21.08.47.12.78.12.26,0,.48-.04.68-.11.2-.07.37-.17.51-.3.14-.13.25-.28.32-.46.07-.18.11-.38.11-.6,0-.24-.06-.44-.16-.59-.11-.15-.25-.28-.43-.39-.18-.1-.38-.19-.61-.26-.23-.07-.46-.15-.7-.22-.24-.08-.47-.16-.7-.26-.23-.1-.43-.23-.61-.39-.18-.16-.32-.36-.43-.6-.11-.24-.16-.53-.16-.89,0-.28.06-.55.16-.82.11-.26.27-.5.48-.7.21-.2.46-.37.77-.49.31-.12.66-.18,1.05-.18.45,0,.85.07,1.22.21.37.14.69.34.96.61l-.26.51Z"/>
  <path d="M55.83,5.13c0-.79-.1-1.56-.3-2.31s-.5-1.46-.89-2.14c-.04-.07-.06-.13-.06-.19,0-.05.01-.09.04-.13.03-.03.06-.06.1-.09l.44-.27c.28.43.51.85.71,1.27.19.42.35.84.47,1.26.12.42.21.85.26,1.28.06.43.08.87.08,1.32s-.03.89-.08,1.32c-.06.43-.14.85-.26,1.28s-.28.84-.47,1.26c-.19.42-.43.84-.71,1.27l-.44-.27s-.07-.06-.1-.09c-.03-.03-.04-.08-.04-.13,0-.03,0-.06.01-.09,0-.03.02-.07.04-.11.39-.68.68-1.39.88-2.14.2-.75.31-1.52.31-2.31Z"/>
</svg>