<?xml version="1.0" encoding="UTF-8"?>
<svg id="Layer_1" data-name="Layer 1" xmlns="http://www.w3.org/2000/svg" viewBox="0 0 56.69 8.1">
  <defs>
    <style>
      .cls-1 {
        fill: #fff;
      }
    </style>
  </defs>
  <path class="cls-1" d="M3.2,4.76c.03.08.06.16.09.23.03-.08.06-.16.09-.23.03-.08.07-.15.11-.23L5.63.66c.04-.07.08-.11.12-.12.04-.01.1-.02.18-.02h.63v6.29h-.75V2.19c0-.06,0-.13,0-.2s0-.14.01-.22l-2.16,3.94c-.07.13-.18.2-.31.2h-.12c-.13,0-.23-.07-.31-.2L.72,1.76c0,.08.02.15.02.22,0,.07,0,.14,0,.2v4.63h-.75V.52h.63c.08,0,.13,0,.18.02.04.02.08.06.12.12l2.17,3.87c.04.07.08.14.11.22Z"/>
  <path class="cls-1" d="M10.85,6.81h-.85V.52h.85v6.29Z"/>
  <path class="cls-1" d="M14.9.55s.08.06.13.12l3.65,4.74c0-.08-.01-.15-.02-.22,0-.07,0-.14,0-.21V.52h.75v6.29h-.43c-.07,0-.12-.01-.17-.04s-.09-.06-.13-.12l-3.64-4.74c0,.07.01.14.01.22,0,.07,0,.13,0,.19v4.48h-.75V.52h.44c.08,0,.13,0,.17.03Z"/>
  <path class="cls-1" d="M25.14,6.14c.26,0,.49-.04.7-.13.21-.09.38-.21.52-.37.14-.16.25-.35.33-.57s.11-.46.11-.72V.52h.85v3.83c0,.36-.06.7-.17,1.01-.12.31-.28.58-.5.81-.22.23-.48.4-.79.53s-.66.19-1.05.19-.74-.06-1.05-.19-.57-.31-.79-.53c-.22-.23-.38-.5-.5-.81-.12-.31-.17-.65-.17-1.01V.52h.85v3.82c0,.26.04.5.11.72.07.22.18.41.32.57.14.16.32.28.52.37.21.09.44.13.7.13Z"/>
  <path class="cls-1" d="M35.15.52v.72h-2.03v5.58h-.85V1.23h-2.04v-.72h4.93Z"/>
  <path class="cls-1" d="M41.68.52v.69h-3.02v2.09h2.45v.67h-2.45v2.15h3.02v.69h-3.88V.52h3.88Z"/>
  <path class="cls-1" d="M45.17,4.05c0,.63.08,1.24.24,1.83.16.59.39,1.15.7,1.69.02.03.03.06.04.08,0,.02,0,.05,0,.07,0,.04-.01.07-.03.1-.02.03-.05.05-.08.07l-.35.21c-.22-.34-.41-.67-.56-1-.15-.33-.28-.66-.37-1s-.16-.67-.21-1.01c-.04-.34-.07-.69-.07-1.04s.02-.7.07-1.04c.04-.34.11-.68.21-1.01s.22-.66.37-.99c.15-.33.34-.67.56-1.01l.35.22s.06.04.08.07c.02.03.03.06.03.1,0,.04-.02.09-.04.15-.31.53-.54,1.1-.7,1.69-.16.59-.24,1.2-.24,1.83Z"/>
  <path class="cls-1" d="M52.28,1.5s-.05.08-.08.1-.07.03-.11.03-.11-.03-.17-.07c-.07-.05-.15-.11-.25-.17-.1-.06-.22-.11-.36-.16-.14-.05-.31-.07-.52-.07-.19,0-.36.03-.51.08s-.27.12-.37.21-.17.19-.22.31c-.05.12-.08.25-.08.38,0,.18.04.32.13.44.09.12.2.21.34.3.14.08.3.15.48.21.18.06.36.12.55.19.19.06.37.14.55.22s.34.18.48.31c.14.12.26.27.34.45s.13.4.13.66c0,.28-.05.53-.14.78-.09.24-.23.45-.41.63-.18.18-.4.32-.66.42-.26.1-.56.15-.89.15-.41,0-.78-.07-1.11-.22-.34-.15-.62-.35-.86-.6l.25-.4s.05-.06.09-.08c.03-.02.07-.03.11-.03.06,0,.13.03.21.1.08.07.18.14.3.22.12.08.26.15.43.22.17.07.37.1.62.1.2,0,.38-.03.54-.08.16-.06.29-.13.4-.23.11-.1.19-.22.25-.36.06-.14.09-.3.09-.47,0-.19-.04-.35-.13-.47-.09-.12-.2-.22-.34-.31-.14-.08-.3-.15-.48-.21s-.36-.12-.55-.18c-.19-.06-.37-.13-.55-.21-.18-.08-.34-.18-.48-.31-.14-.13-.25-.28-.34-.47-.09-.19-.13-.42-.13-.7,0-.22.04-.44.13-.65.09-.21.21-.39.38-.55.16-.16.37-.29.61-.39s.52-.15.83-.15c.35,0,.67.06.96.17.29.11.54.27.76.48l-.21.4Z"/>
  <path class="cls-1" d="M56.01,4.05c0-.63-.08-1.24-.24-1.83-.16-.59-.39-1.15-.7-1.69-.03-.06-.04-.11-.04-.15,0-.04.01-.07.03-.1.02-.03.05-.05.08-.07l.35-.22c.22.34.41.67.56,1.01s.28.66.37.99.17.67.21,1.01c.04.34.07.69.07,1.04s-.02.71-.07,1.04c-.04.34-.11.67-.21,1.01s-.22.67-.37,1c-.15.33-.34.66-.56,1l-.35-.21s-.06-.04-.08-.07c-.02-.03-.03-.06-.03-.1,0-.02,0-.05,0-.07,0-.02.02-.05.04-.08.3-.54.54-1.1.7-1.69.16-.59.24-1.2.24-1.83Z"/>
</svg>