<?xml version="1.0" encoding="UTF-8"?>
<svg id="Layer_1" data-name="Layer 1" xmlns="http://www.w3.org/2000/svg" viewBox="0 0 56.69 7.77">
  <path d="M3.58,1.44s-.05.07-.08.09c-.03.02-.06.03-.11.03-.05,0-.1-.02-.17-.07-.06-.05-.14-.1-.24-.16-.1-.06-.21-.11-.35-.16-.14-.05-.3-.07-.49-.07-.18,0-.34.02-.48.07-.14.05-.26.12-.35.2-.09.08-.17.18-.21.3s-.07.24-.07.37c0,.17.04.31.12.42.08.11.19.21.33.28.14.08.29.15.46.2.17.06.35.12.53.18.18.06.36.13.53.21.17.08.33.17.46.29.14.12.25.26.33.43.08.17.12.38.12.63,0,.26-.04.51-.13.74-.09.23-.22.43-.39.6s-.38.31-.64.4c-.25.1-.54.15-.86.15-.39,0-.75-.07-1.07-.21s-.6-.33-.82-.57l.24-.39s.05-.06.08-.08c.03-.02.07-.03.11-.03.06,0,.13.03.2.09.08.06.17.13.28.21.11.08.25.14.41.21.16.06.36.09.59.09.19,0,.37-.03.52-.08.15-.05.28-.13.39-.23.11-.1.19-.21.24-.35.06-.14.08-.29.08-.45,0-.18-.04-.33-.12-.45-.08-.12-.19-.21-.33-.29-.13-.08-.29-.15-.46-.2-.17-.05-.35-.11-.53-.17-.18-.06-.36-.12-.53-.2s-.33-.17-.46-.29c-.13-.12-.24-.27-.33-.45s-.12-.4-.12-.67c0-.21.04-.42.12-.62s.2-.38.36-.53c.16-.15.35-.28.58-.37.23-.09.5-.14.8-.14.34,0,.64.05.92.16.28.11.52.26.73.46l-.2.39Z"/>
  <path d="M10.36.5v.67h-2.9v2h2.35v.64h-2.35v2.06h2.9v.67h-3.72V.5h3.72Z"/>
  <path d="M17.47,5.29s.09.02.12.05l.32.35c-.25.29-.55.51-.9.67s-.78.24-1.27.24c-.44,0-.83-.08-1.18-.23-.35-.15-.66-.36-.91-.63-.25-.27-.44-.6-.58-.98s-.21-.8-.21-1.25.07-.87.22-1.25.35-.7.62-.98c.27-.27.59-.48.96-.63.37-.15.78-.23,1.23-.23s.83.07,1.15.21.61.32.86.56l-.27.37s-.04.05-.07.07c-.03.02-.06.03-.11.03-.04,0-.08-.01-.12-.04s-.09-.06-.15-.1-.12-.08-.2-.13-.17-.09-.27-.13c-.1-.04-.22-.07-.36-.1-.14-.03-.3-.04-.48-.04-.32,0-.62.06-.89.17-.27.11-.5.27-.69.47s-.34.45-.45.75-.16.62-.16.99.05.71.16,1.01c.11.29.26.54.44.75s.41.36.66.47c.26.11.53.16.83.16.18,0,.34-.01.48-.03.14-.02.28-.05.4-.1.12-.04.24-.1.34-.17s.21-.15.32-.25c.05-.04.09-.06.14-.06Z"/>
  <path d="M26.28,3.52c0,.45-.07.87-.21,1.24s-.35.7-.61.98c-.26.27-.57.48-.94.63s-.77.23-1.22.23-.85-.08-1.21-.23-.68-.36-.94-.63c-.26-.27-.46-.6-.61-.98s-.21-.79-.21-1.24.07-.87.21-1.24.35-.7.61-.98.57-.49.94-.64c.37-.15.77-.23,1.21-.23s.85.08,1.22.23c.37.15.68.36.94.64s.46.6.61.98.21.79.21,1.24ZM25.44,3.52c0-.37-.05-.7-.15-1-.1-.3-.24-.54-.43-.75-.19-.2-.41-.36-.67-.47-.26-.11-.56-.16-.88-.16s-.62.05-.88.16c-.26.11-.49.27-.68.47-.19.2-.33.45-.43.75-.1.29-.15.63-.15,1s.05.7.15,1,.25.54.43.75c.19.2.41.36.68.47s.56.16.88.16.62-.05.88-.16.49-.26.67-.47c.19-.2.33-.45.43-.75s.15-.63.15-1Z"/>
  <path d="M29.66.52s.08.06.12.11l3.5,4.55c0-.07-.01-.14-.02-.21,0-.07,0-.14,0-.2V.5h.72v6.04h-.41c-.06,0-.12-.01-.16-.03-.04-.02-.09-.06-.13-.11l-3.49-4.54c0,.07,0,.14.01.21,0,.07,0,.13,0,.19v4.3h-.72V.5h.42c.07,0,.13,0,.16.03Z"/>
  <path d="M42.36,3.52c0,.45-.07.86-.21,1.23-.14.37-.35.69-.61.95s-.57.47-.94.61-.77.22-1.21.22h-2.26V.5h2.26c.44,0,.85.07,1.21.22s.68.35.94.61.46.58.61.95c.14.37.21.78.21,1.23ZM41.52,3.52c0-.37-.05-.7-.15-.99s-.24-.54-.43-.74c-.19-.2-.41-.36-.67-.46-.26-.11-.56-.16-.88-.16h-1.44v4.71h1.44c.32,0,.62-.05.88-.16s.49-.26.67-.46c.19-.2.33-.45.43-.74s.15-.62.15-.99Z"/>
  <path d="M45.64,3.88c0,.6.08,1.18.23,1.75.15.57.38,1.11.67,1.62.02.03.03.06.03.08,0,.02,0,.04,0,.07,0,.04,0,.07-.03.1-.02.03-.04.05-.08.07l-.33.2c-.21-.32-.39-.64-.54-.96-.15-.32-.27-.64-.36-.96-.09-.32-.16-.64-.2-.97s-.06-.66-.06-1,.02-.67.06-1c.04-.33.11-.65.2-.97.09-.32.21-.64.36-.95.15-.32.33-.64.54-.96l.33.21s.06.04.08.07c.02.03.03.06.03.1,0,.04-.01.09-.04.14-.29.51-.52,1.05-.67,1.62-.15.57-.23,1.15-.23,1.75Z"/>
  <path d="M52.46,1.44s-.05.07-.08.09c-.03.02-.06.03-.11.03s-.1-.02-.17-.07c-.06-.05-.14-.1-.24-.16-.1-.06-.21-.11-.35-.16-.14-.05-.3-.07-.49-.07-.18,0-.34.02-.48.07-.14.05-.26.12-.35.2s-.17.18-.21.3c-.05.11-.07.24-.07.37,0,.17.04.31.12.42.08.11.19.21.33.28.14.08.29.15.46.2.17.06.35.12.53.18.18.06.36.13.53.21s.33.17.46.29c.14.12.25.26.33.43.08.17.12.38.12.63,0,.26-.04.51-.13.74-.09.23-.22.43-.39.6s-.38.31-.64.4c-.25.1-.54.15-.86.15-.39,0-.75-.07-1.07-.21-.32-.14-.6-.33-.82-.57l.24-.39s.05-.06.08-.08c.03-.02.07-.03.11-.03.06,0,.13.03.2.09.08.06.17.13.28.21.11.08.25.14.41.21.16.06.36.09.59.09.19,0,.37-.03.52-.08.15-.05.28-.13.39-.23.1-.1.19-.21.24-.35.06-.14.08-.29.08-.45,0-.18-.04-.33-.12-.45-.08-.12-.19-.21-.33-.29-.14-.08-.29-.15-.46-.2-.17-.05-.35-.11-.53-.17-.18-.06-.36-.12-.53-.2-.17-.08-.33-.17-.46-.29-.14-.12-.24-.27-.33-.45-.08-.18-.12-.4-.12-.67,0-.21.04-.42.12-.62.08-.2.2-.38.36-.53.16-.15.35-.28.58-.37.23-.09.5-.14.8-.14.34,0,.64.05.92.16.28.11.52.26.73.46l-.2.39Z"/>
  <path d="M56.04,3.88c0-.6-.08-1.18-.23-1.75s-.38-1.11-.67-1.62c-.03-.05-.04-.1-.04-.14,0-.04,0-.07.03-.1.02-.03.04-.05.08-.07l.33-.21c.21.33.39.65.54.96.15.32.27.64.36.95.09.32.16.64.2.97.04.33.06.66.06,1s-.02.68-.06,1c-.04.32-.11.65-.2.97s-.21.64-.36.96c-.15.32-.33.64-.54.96l-.33-.2s-.06-.04-.08-.07c-.02-.03-.03-.06-.03-.1,0-.02,0-.04,0-.07,0-.02.02-.05.03-.08.29-.51.52-1.05.67-1.62.15-.57.23-1.15.23-1.75Z"/>
</svg>